<?xml version="1.0" standalone="no"?>
<!DOCTYPE svg PUBLIC "-//W3C//DTD SVG 1.1//EN" "http://www.w3.org/Graphics/SVG/1.1/DTD/svg11.dtd">
<svg xmlns="http://www.w3.org/2000/svg">
<metadata>Generated by Fontastic.me</metadata>
<defs>
<font id="untitled-font-2" horiz-adv-x="512">
<font-face font-family="untitled-font-2" units-per-em="512" ascent="480" descent="-32"/>
<missing-glyph horiz-adv-x="512" />

<glyph glyph-name="parties" unicode="&#97;" d="M256 209c59 0 106 61 106 135 0 76-47 135-106 135-59 0-106-61-106-135 2-74 49-135 106-135z m-80 168c10 47 45 82 82 82 25 0 49-17 66-43l4-6-9 0c-32-2-59 6-61 8l-2 2c-4 8-10 6-10 6-4-2-6-6-6-14l0-6c-2-19-2-25-17-33-6-4-12-4-16-4-8-4-14-2-21 0-2 2-4 2-6 2l-6 2z m-4-25l8-4c21-12 51 2 53 4 13 8 23 21 27 35l2 6 6-4c13-8 43-4 64 0l4 0 2-4c4-12 6-27 6-41 0-63-39-115-84-115-47 0-84 52-84 115z m320-291l0 11-35 94c-2 4-4 6-8 6l-103 29c-2 0-6 0-8 0l-82-43-84 45c-2 0-4 2-4 2 0 0-2 0-2 0l-105-33c-4 0-6-4-6-6l-28-92c0 0-9-29 14-31l430 0c23 2 21 18 21 18z m-451 0l29 91 98 30 84-47c2-2 6 0 10 2l84 45 96-30 31-86-432 0z"/>
<glyph glyph-name="alerts" unicode="&#98;" d="M455 72c-2 2-2 2-4 2 0 0-19 12-37 39-23 34-31 77-27 125 10 86 2 139-27 172-20 24-34 34-79 34l-13 0 0 41c0 4-4 9-8 9-4 0-4-2-4-7l0-41c-39 3-84-12-106-36-31-31-37-84-27-172 14-113-57-160-60-162-2 0-2-2-4-4l-2 0c-4 0-8-4-8-9 0-4 4-8 8-8l156 0c4-22 23-39 45-39 23 0 41 17 45 39l154 0c4 0 8 4 8 8-2 7-6 9-10 9z m-316 168c-10 82-2 131 23 157 18 21 45 29 84 29l22 0c39 0 66-10 84-29 25-28 33-78 23-157-10-93 33-148 55-168l-346 0c22 20 66 73 55 168z m119-205c-14 0-25 10-29 22l56 0c-2-14-15-22-27-22z"/>
<glyph glyph-name="approvals" unicode="&#99;" d="M512 444c-2 25-23 45-47 45l-346 0c-33 0-60-38-60-71l0-385c0-4 4-8 9-8l366 0c4 0 8 4 8 8l0 385c0 2-4 39 27 53 14-2 25-14 25-29 0 0 0-2 0-2 0-16-15-28-31-28-4 0-8-4-8-9 0-4 4-8 8-8 29 0 49 23 49 49z m-84-26l0-379-352 0 0 379c0 24 20 55 41 55l325 0c-16-20-16-51-14-55z m-78-275l6 25c0 2 0 6-2 8-2 2-4 2-8 2l-24-6-19 16c-2 2-6 2-8 2-2 0-4-2-6-6l-6-24-25-8c-2 0-4-5-6-7 0-2 0-6 2-8l18-18-6-23c0-2 0-6 2-8 2-2 4-2 8-2l25 6 18-16c3-2 5-2 7-2 0 0 2 0 2 0 2 0 4 2 6 6l6 24 25 9c2 0 4 4 6 6 0 2 0 6-2 8z m-18-26c-2 0-4-2-6-6l-4-17-13 10c-2 2-4 2-6 2 0 0-2 0-2 0l-16-4 4 17c0 2 0 6-2 8l-13 12 17 4c2 0 4 2 6 7l4 16 12-10c2-2 4-2 9-2l16 4-4-17c0-2 0-6 2-8l12-10z m-189 256l125 0c4 0 8 4 8 8 0 4-4 8-8 8l-125 0c-4 0-8-4-8-8 0-4 4-8 8-8z m0-76l217 0c5 0 9 4 9 8 0 4-4 8-9 8l-217 0c-4 0-8-4-8-8 0-4 4-8 8-8z m226-49c0 4-4 8-9 8l-217 0c-4 0-8-4-8-8 0-4 4-8 8-8l217 0c5 0 9 4 9 8z"/>
<glyph glyph-name="authentication" unicode="&#100;" d="M428 299c-8 0-16 8-14 16 0 37-45 127-142 136-92 6-143-70-145-74-4-8-14-10-21-4-6 4-8 14-4 20 2 4 62 96 172 88 115-10 172-116 168-168 0-8-6-14-14-14z m0-4c0 0-2 0 0 0-6 0-10 2-12 6-4 4-6 8-6 12 2 37-43 127-140 133-90 9-139-67-141-71-6-8-16-10-25-6-8 6-10 16-6 24 4 4 64 99 176 90 117-8 175-116 172-170-2-10-10-18-18-18z m-168 158c4 0 8 0 12 0 99-9 146-101 144-140 0-4 0-6 4-8 2-2 6-4 8-4 6 0 12 6 12 12 2 52-53 158-166 166-110 6-168-84-170-88-4-6-2-14 2-16 7-4 15-2 19 4 2 2 49 74 135 74z m168-254c-2 0-4 0-4 0-45 14-72 51-70 77 2 91-35 109-73 115-35 6-60-14-82-33-15-8-25-16-35-22l-8-2c-19-8-45-21-68-29-8-2-16 2-18 10-2 9 2 17 10 19 18 6 43 16 61 26l9 5c8 4 16 10 26 18 25 20 57 47 107 39 71-10 102-57 100-146 0-10 16-36 49-47 8-2 12-10 10-18-2-8-8-12-14-12z m0-2c-2 0-4 0-6 0-45 14-74 53-72 79 2 89-33 107-71 111-35 6-58-14-80-33-13-6-23-14-35-20l-8-4c-19-8-45-23-68-29-4-2-10 0-14 2-2 4-4 6-6 12-2 9 2 19 12 21 18 6 43 16 61 26l9 5c8 4 16 10 26 18 25 21 60 47 109 41 71-10 104-57 102-147 0-11 16-35 47-46 4-2 8-4 10-8 2-4 2-8 2-14-4-8-10-14-18-14z m-162 198c4 0 8 0 13 0 40-6 79-24 75-116 0-25 25-62 70-76 6-2 14 2 16 8 2 4 0 6 0 10-2 2-4 6-8 6-35 11-51 39-51 52 2 86-29 131-98 143-47 8-80-19-105-39-10-10-18-18-26-21l-9-4c-18-8-43-20-63-26-6-2-10-8-8-17 0-4 4-6 6-8 4 0 6 0 10 0 21 6 47 19 66 27l8 4c10 4 20 12 33 22 20 19 43 35 71 35z m-139-243c-8 0-14 6-14 12-2 8 4 16 12 16 27 4 55 19 80 33 10 6 20 10 31 14 43 19 67 39 71 60 4 18-8 32-12 37-31 20-66-11-68-13-34-26-108-61-112-63-9-4-17 0-21 8-4 8 0 16 8 20 0 0 74 35 107 60 18 16 67 41 106 12 0 0 2 0 2-2 2-2 29-29 21-63-6-33-37-60-90-82-8-4-19-8-29-15-26-14-57-30-90-34 0 0-2 0-2 0z m0-2c-8 0-16 6-18 14-3 10 6 18 14 20 27 4 55 19 80 31 10 6 20 10 30 14 41 19 66 37 70 58 4 16-8 30-10 35-29 20-64-13-66-13-37-26-112-63-112-63-9-4-21 0-25 8-4 8 0 20 8 25 0 0 74 34 107 59 22 20 71 41 108 12 0 0 2 0 2-2 2-2 29-29 23-67-6-33-37-62-90-84-8-4-17-9-27-13-26-14-59-30-92-34 0 0-2 0-2 0z m145 186c9 0 17-2 25-8 4-4 16-21 12-39-4-23-28-43-73-62-9-4-21-10-31-14-25-12-53-29-82-33-6-2-12-8-10-14 0-6 8-12 14-10 31 4 63 20 90 34 10 5 19 11 27 15 53 22 82 49 88 80 6 34-19 61-21 61 0 0 0 0-2 2-41 31-88 2-102-12-31-25-105-60-105-60-6-2-8-10-6-16 2-6 10-8 17-6 0 0 75 37 112 63 2 0 23 19 47 19z m-159-137c-4 0-11 2-13 8-4 6-2 16 6 20 3 2 5 2 11 4 18 7 76 25 127 68 6 6 16 4 20-2 6-6 4-16-2-21-57-49-119-67-137-73-2 0-4-2-6-2 0-2-4-2-6-2z m0-2c-7 0-13 4-15 8-2 4-4 8-2 12 2 4 4 10 8 12 2 2 7 2 13 4 18 7 73 25 127 68 8 6 18 6 24-2 6-8 6-18-2-25-57-49-119-67-139-73l-2 0c-2 0-4-2-4-2-2-2-4-2-8-2z m141 104c-2 0-6 0-8-2-53-45-111-63-129-70-6-2-8-2-11-4-4-2-6-6-6-8 0-4 0-6 2-8 4-6 11-8 17-4 2-2 4 0 6 0l2 0c20 6 80 26 137 74 6 4 6 12 2 18-4 2-8 4-12 4z m-127-205c-6 0-12 4-14 10-2 9 2 17 10 19 45 12 168 57 203 102 4 4 8 6 12 6 4 0 10-4 12-8 0 0 23-39 82-63 8-4 12-12 8-21-4-8-12-12-20-8-45 19-72 45-86 62-60-54-199-97-205-99 0 0 0 0-2 0z m0-2c-8 0-14 6-16 12-2 5 0 11 2 15 2 4 6 8 10 8 45 12 166 57 203 100 4 4 10 7 16 7 6 0 10-5 14-11 0 0 23-39 82-63 4-2 8-6 11-10 2-5 2-11 0-15-3-4-7-8-11-10-4-2-10-2-14 0-43 18-70 41-86 59-59-53-188-92-203-96-4 4-6 4-8 4z m211 137c-4 0-8-2-10-4-37-45-160-90-205-102-4 0-6-4-8-6-2-2-2-6 0-10 2-7 10-11 16-9 6 2 145 43 203 97l2 2 2-2c14-19 41-43 86-60 4-2 6-2 10 0 4 2 6 4 6 6 2 4 2 7 0 11-2 4-4 6-6 6-61 24-86 63-86 63-2 4-6 6-10 8z m-201-184c-6 0-12 4-14 12-2 9 2 17 10 19 2 0 127 33 197 84 6 4 14 4 20-2 0 0 29-29 80-49 8-5 12-13 8-21-4-8-12-12-20-8-39 16-66 37-80 47-74-51-193-80-197-82-2 0-4 0-4 0z m0-2c-8 0-14 6-16 14-2 4 0 11 2 15 2 4 6 6 10 8 4 0 127 31 195 82 6 6 16 4 22-2 0 0 29-29 80-49 4-2 8-7 10-11 2-4 2-10 0-14-2-4-6-6-10-8-4-2-10-2-14 0-39 16-66 35-78 47-74-49-184-78-197-82-2 0-4 0-4 0z m201 117c-2 0-6 0-8-2-68-51-193-84-197-84-4 0-6-2-8-6-2-4-2-7 0-11 2-6 8-10 14-10 4 2 123 31 197 82l2 2 2-2c12-10 39-31 80-47 6-2 14 0 16 6 2 4 2 6 0 10-2 4-4 6-6 6-51 23-80 52-80 52-6 2-8 4-12 4z m-92-131c-6 0-13 4-15 12-2 8 5 16 13 18 18 5 61 23 90 37 4 2 10 2 16-2 0 0 25-16 51-28 9-5 13-13 9-21-4-8-13-12-21-8-20 8-41 20-51 27-27-13-68-31-88-35-2 0-4 0-4 0z m0-2c-8 0-17 6-17 14-2 10 4 18 15 20 18 5 61 23 88 37 6 2 12 2 18-2 4-2 27-18 51-28 9-4 15-15 11-23-4-8-15-14-23-10-20 8-37 18-49 26-29-14-68-30-88-34-4 0-4 0-6 0z m92 67c-2 0-4 0-6-2-29-14-72-33-90-37-6-2-11-8-11-14 2-6 9-10 15-10 20 4 59 20 88 35l4 0c10-7 29-19 49-27 6-2 14 0 16 6 3 6 0 14-6 16-26 11-49 27-53 29 0 4-2 4-6 4z"/>
<glyph glyph-name="authorization" unicode="&#101;" d="M494 274l-56 0c-2 0-2 2-4 2-16 0-28 13-28 29 0 8 4 19 10 23 0 0 2 2 2 2 16 12 26 30 26 51 0 35-28 61-63 61-12 0-25-4-35-10l-221 0c-4-2-6-4-8-8l-109-336c0-2 0-6 2-8 2-2 4-4 6-4l476 0c2 0 4 2 6 4 2 2 2 4 2 6l-31 113 25 0c4 0 8 4 8 8l0 59c0 4-4 8-8 8z m-64 105c0-14-8-29-18-37 0 0-2-2-2-2-13-8-21-23-21-37 0-10 4-20 10-29l-30 0c6 9 10 19 10 29 0 14-6 27-19 35-2 0-2 2-4 2-12 8-18 22-18 37 0 14 6 26 16 35 2 0 4 2 6 4 7 4 15 6 23 6 27 4 47-16 47-43z m51-285l-454 0 104 320 201 0c-6-11-10-23-10-35 0-21 10-39 26-51 2 0 2-2 4-4 0 0 0-2 0-2 8 0 13-13 13-21 0-16-13-27-29-27-2 0-2 0-4 0l-51 0c-5 0-9-4-9-8l0-57c0-4 4-8 9-8l170 0z m4 123l-196 0 0 41 196 0z m-354 98l164 0c4 0 8 4 8 9 0 4-4 8-8 8l-164 0c-4 0-8-4-8-8 0-5 4-9 8-9z m117-24l-133 0c-4 0-9-4-9-8 0-4 5-9 9-9l131 0c4 0 8 5 8 9 0 4-2 8-6 8z m-17-41l-122 0c-5 0-9-4-9-8 0-4 4-9 9-9l122 0c5 0 9 5 9 9 0 4-4 8-9 8z"/>
<glyph glyph-name="calculators" unicode="&#102;" d="M434 492c0 4-4 8-8 8l-340 0c-4 0-8-4-8-8l0-472c0-4 4-8 8-8l340 0c4 0 8 4 8 8z m-16-463l-324 0 0 454 324 0z m-291 340l264 0c4 0 8 4 8 8l0 82c0 4-4 8-8 8l-264 0c-4 0-8-4-8-8l0-82c0-6 4-8 8-8z m8 82l248 0 0-66-248 0z m258-207l-49 0c-4 0-8-4-8-8l0-191c0-4 4-8 8-8l49 0c4 0 8 4 8 8l0 191c0 4-4 8-8 8z m-8-191l-33 0 0 174 33 0z m-258 207l41 0c4 0 8 4 8 8l0 41c0 4-4 8-8 8l-41 0c-4 0-8-4-8-8l0-41c0-4 4-8 8-8z m8 41l25 0 0-25-25 0z m109 16l-41 0c-4 0-8-4-8-8l0-41c0-4 4-8 8-8l41 0c4 0 8 4 8 8l0 41c0 4-4 8-8 8z m-8-41l-25 0 0 25 25 0z m81 41l-41 0c-4 0-8-4-8-8l0-41c0-4 4-8 8-8l41 0c5 0 9 4 9 8l0 41c0 4-2 8-9 8z m-8-41l-24 0 0 25 24 0z m-182-90l41 0c4 0 8 4 8 9l0 41c0 4-4 8-8 8l-41 0c-4 0-8-4-8-8l0-41c0-7 4-9 8-9z m8 41l25 0 0-24-25 0z m109 17l-41 0c-4 0-8-4-8-8l0-41c0-5 4-9 8-9l41 0c4 0 8 4 8 9l0 41c0 4-4 8-8 8z m-8-41l-25 0 0 24 25 0z m81 41l-41 0c-4 0-8-4-8-8l0-41c0-5 4-9 8-9l41 0c5 0 9 4 9 9l0 41c0 4-2 8-9 8z m-8-41l-24 0 0 24 24 0z m-182-92l41 0c4 0 8 4 8 8l0 41c0 4-4 8-8 8l-41 0c-4 0-8-4-8-8l0-41c0-4 4-8 8-8z m8 41l25 0 0-25-25 0z m109 18l-41 0c-4 0-8-4-8-8l0-41c0-4 4-8 8-8l41 0c4 0 8 4 8 8l0 41c0 4-4 8-8 8z m-8-43l-25 0 0 25 25 0z m81 43l-41 0c-4 0-8-4-8-8l0-41c0-4 4-8 8-8l41 0c5 0 9 4 9 8l0 41c0 4-2 8-9 8z m-8-43l-24 0 0 25 24 0z m-182-90l41 0c4 0 8 4 8 8l0 49c0 4-4 8-8 8l-41 0c-4 0-8-4-8-8l0-49c0-4 4-8 8-8z m8 49l25 0 0-33-25 0z m109 16l-41 0c-4 0-8-4-8-8l0-49c0-4 4-8 8-8l41 0c4 0 8 4 8 8l0 49c0 4-4 8-8 8z m-8-49l-25 0 0 33 25 0z m81 49l-41 0c-4 0-8-4-8-8l0-49c0-4 4-8 8-8l41 0c5 0 9 4 9 8l0 49c0 4-2 8-9 8z m-8-49l-24 0 0 33 24 0z m33 207l41 0c4 0 8 4 8 8l0 41c0 4-4 8-8 8l-41 0c-4 0-8-4-8-8l0-41c0-4 4-8 8-8z m8 41l25 0 0-25-25 0z m-223 33l264 0c4 0 8 4 8 8 0 4-4 8-8 8l-264 0c-4 0-8-2-8-8 0-6 4-8 8-8z"/>
<glyph glyph-name="credit-cards" unicode="&#103;" d="M489 446l-380 0c-5 0-9-4-9-8l0-96-71 0c-4 2-9-2-9-6l0-254c0-4 5-8 9-8l381 0c4 0 8 4 8 8l0 96 71 0c5 0 9 4 9 8l0 252c0 6-4 8-9 8z m-8-14l0-47-364 0 0 47z m-80-104l0-47-364 0 0 47z m0-240l-364 0 0 174 366 0 0-174z m17 105l0 143c0 4-4 8-8 8l-293 0 0 23 366 0 0-174z m-246-33l-113 0c-4 0-8-4-8-8 0-5 4-9 8-9l111 0c4 0 8 4 8 9 2 6-2 8-6 8z m199 33l-64 0c-4 0-8-5-8-9l0-47c0-4 4-8 8-8l64 0c4 0 8 4 8 8l0 47c0 4-4 9-8 9z m-9-48l-47 0 0 33 47 0z"/>
<glyph glyph-name="demand-deposits" unicode="&#104;" d="M481 430l-456 0c-5 0-11-2-11-8l0-201c0-4 6-10 11-10l30 0 0-107c0-4 2-6 6-8 27-6 48-8 66-8 6 0 10 0 16 0 2-2 2-2 4-2 25-6 48-8 66-8 37 0 61 8 63 10 5 2 7 4 7 8l0 35c0 0 0 2 0 2 0 0 0 2 0 2l0 70c0 2 2 4 2 8l198 0c4 0 11 4 11 10l0 199c-2 6-7 8-13 8z m-354-194c8 0 41 0 57 8l0-11c-16-2-37-6-45-16-20-2-37-2-69 4l0 19c18-4 49-4 57-4z m-53 24c6 4 24 8 55 8 29 0 47-4 55-8-6-4-24-8-55-8-29 0-49 4-55 8z m71-57l0-23c-24-2-41-2-73 6l0 21c16-2 37-4 51-4 6 0 14 0 22 0z m-73-33c24-4 39-6 53-6 6 0 10 0 18 0l0-21c-24-2-41-2-73 7l0 20z m88-10c16-4 37-6 53-6 23 0 43 4 51 6l0-21c-16-4-57-12-104 0z m106 16c-16-4-57-12-104 0l0 19c16-7 45-7 53-7 8 0 35 0 51 7z m0 37c-8-4-26-8-53-8-29 0-47 4-55 8 6 4 26 8 55 8 27-2 45-6 53-8z m-194-102l0 20c24-4 39-6 55-6 6 0 10 0 18 0l0-23c-24 2-41 2-73 9z m88-11l0 23c16-4 37-6 53-6 23 0 43 4 51 6l0-23c-14-4-55-14-104 0z m317 127l-211 0c-18 9-47 9-55 9-2 0-2 0-10 0l0 24c0 4 0 6-4 8-11 17-60 17-70 17-12 0-72-2-72-25l0-33-24 0 0 187 444 0 0-187z m-24 74c0 4-4 8-9 8l-112 0c-4 0-8-4-8-8l0-33c0-4 4-8 8-8l112 0c5 0 9 4 9 8z m-17-25l-96 0 0 17 96 0z m-373 95l379 0c4 0 9 4 9 8 0 4-5 8-9 8l-379 0c-4 0-8-4-8-8 0-4 4-8 8-8z m0-37l379 0c4 0 9 4 9 8 0 4-5 8-9 8l-379 0c-4-2-8-4-8-8 0-6 4-8 8-8z"/>
<glyph glyph-name="enumerations" unicode="&#105;" d="M123 397l348 0c6 0 10 4 10 11 0 6-4 10-10 10l-348 0c-6 0-10-4-10-10 0-7 4-11 10-11z m-45 11c0-9-8-17-17-17-9 0-16 8-16 17 0 9 7 16 16 16 9 0 17-7 17-16z m393-91l-348 0c-6 0-10-4-10-10 0-6 4-10 10-10l348 0c6 0 10 4 10 10 0 6-4 10-10 10z m-393-10c0-9-8-16-17-16-9 0-16 7-16 16 0 9 7 17 16 17 9 0 17-8 17-17z m393-88l-348 0c-6 0-10-4-10-10 0-6 4-10 10-10l348 0c6 0 10 4 10 10 0 6-4 10-10 10z m-393-10c0-9-8-16-17-16-9 0-16 7-16 16 0 9 7 16 16 16 9 0 17-7 17-16z m393-90l-348 0c-6 0-10-4-10-10 0-7 4-11 10-11l348 0c6 0 10 4 10 11 0 6-4 10-10 10z m-393-10c0-10-8-17-17-17-9 0-16 7-16 17 0 9 7 16 16 16 9 0 17-7 17-16z"/>
<glyph glyph-name="global" unicode="&#107;" d="M258 485c-2 0-2 0-2 0-129 0-233-106-233-235 0-129 104-234 233-234 129 0 236 107 236 234 0 129-105 233-234 235z m188-342l-51 0c15 29 23 62 25 95l55 0c-2-35-12-68-29-95z m-407 95l63 0c2-33 11-66 23-95l-57 0c-17 27-27 60-29 95z m22 110l60 0c-12-31-19-61-19-96l-63 0c0 35 8 67 22 96z m203 14l0 103c49-23 88-57 113-103z m119-14c12-29 20-61 20-94l-139 0 0 94z m-135 14l-103 0c23 44 60 78 103 101z m0-14l0-94-131 0c0 33 8 65 20 94z m-131-110l131 0 0-95-107 0c-14 29-22 60-24 95z m131-111l0-88c-41 20-76 51-98 88z m16 0l105 0c-25-39-60-70-105-90z m0 16l0 95 139 0c-2-35-10-66-26-95z m156 109c0 33-6 65-19 94l52 0c14-29 22-61 22-94z m24 110l-49 0c-20 41-53 78-94 103 59-12 113-51 143-103z m-223 105c-41-25-74-61-94-102l-57 0c32 53 88 90 151 102z m-143-340l55 0c21-37 49-68 88-90-61 8-110 43-143 90z m219-90c39 22 70 53 90 90l49 0c-33-47-82-80-139-90z"/>
<glyph glyph-name="goals" unicode="&#108;" d="M483 430c-2 4-4 6-8 8l-41 11-12 36c-2 4-4 7-8 7-4 0-8 0-11-5l-45-49-4 2c-32 17-67 27-102 27-123 0-223-100-223-223 0-123 100-224 223-224 123 0 223 101 223 224 0 45-12 88-39 125l-2 4 45 49c4 0 4 4 4 8z m-98-186c0-74-59-133-133-133-74 0-133 59-133 133 0 73 59 133 133 133 27 0 51-8 72-23l4-2-35-43-4 2c-13 6-25 11-39 11-43 0-78-35-78-78 0-43 35-78 78-78 43 0 78 35 78 78 0 18-6 35-17 49l-2 4 35 43 4-4c25-29 37-60 37-92z m-139-8c4-5 12-5 14 2l35 43 4-7c6-8 8-18 8-28 0-31-24-56-55-56-31 0-55 25-55 56 0 30 24 55 55 55 8 0 14-2 20-4l7-2-37-43c-2-6 0-14 4-16z m209 8c0-111-90-203-203-203-111 0-203 90-203 203 0 112 88 202 199 202 26 0 43-2 71-14 5-2 15-4 21-6l8-4 0-4 8-39-10-14-6 4c-27 18-55 26-88 26-84 0-154-69-154-153 0-84 70-154 154-154 86 0 154 70 154 154 0 41-15 77-44 106l-4 4 11 10 47-6c0 0 0 0 2 0l2 0 2-2c20-35 33-71 33-110z m-41 135l-37 6-8 33 39 43 8-25c2-4 4-6 8-6l29-8z"/>
<glyph glyph-name="limits" unicode="&#109;" d="M395 41l-26 0 0 111c0 0 0 0-2 0-5 26-19 51-43 69l-5 4c-14 11-20 17-20 27 0 0 0 12 18 24 33 17 50 52 50 89l0 86 26 0c6 0 10 4 10 10 0 6-2 10-8 10l-262 0c-6 0-10-4-10-10 0-6 4-10 10-10l31 0 0-86c0-33 12-64 37-82 2-2 0 0 2-2 12-7 26-19 26-29 0-6-2-16-10-23l-12-8c-29-20-43-51-43-86l0-74-2-20-29 0c-6 0-10-4-10-10 0-6 4-11 10-11l262 0c6 0 11 5 11 11 0 6-5 10-11 10z m-174 164l12 10c11 8 17 23 17 37 0 20-17 35-31 43-24 14-35 39-35 70l0 86 164 0 0-86c0-33-16-60-43-74-2 0-2-2-4-4-12-8-22-19-22-37 0-21 12-31 26-41 2 0 2-2 4-2 19-12 31-29 37-47-74 26-129 14-156 4 5 16 15 31 31 41z"/>
<glyph glyph-name="originations" unicode="&#111;" d="M236 303c-5 2-9 4-13 2-4-2-6-6-6-10l-4-227c0-5 2-9 6-11 4-2 8 0 12 2l43 45 50-84c2-4 8-6 14-4l51 25c2 2 4 4 6 6 0 2 0 6 0 8l-47 74 55-6c5 0 15 6 15 10 2 4 0 12-4 17z m94-145c-4 0-8-2-11-6-2-5-2-9 0-11l52-86-33-14-51 88c-2 2-4 4-8 6l-3 0c-2 0-6-2-8-4l-35-35 3 176 145-120z m-58 184c0-6 0-12-2-16-2-7 2-13 6-15 7-2 13 2 15 6 2 9 4 17 4 25 0 45-37 80-80 80-45 0-80-37-80-80 0-27 15-53 37-68 4-2 12-2 14 5 4 4 2 12-4 14-18 10-28 29-28 49 0 33 26 59 59 59 33 0 59-26 59-59z m-94-129c-59 16-98 68-98 129 0 74 59 133 133 133 74 0 133-59 133-133 0-25-6-49-18-70-4-4-2-12 4-14 4-2 12-2 14 4 14 25 23 51 23 80 0 86-70 156-156 156-86 0-156-72-156-156 0-70 47-131 115-149 2 0 6 0 8 2 2 2 4 4 6 6 0 2 0 6-2 8 0 2-2 2-6 4z"/>
<glyph glyph-name="overview" unicode="&#112;" d="M498 266c-4 4-84 115-219 131-58 6-121-14-183-59-47-33-78-68-78-70-4-4-4-8 0-12 2-2 29-39 74-74 53-41 109-63 162-63 8 0 16 0 22 2 142 18 220 129 224 135 2 2 2 6-2 10z m-21-6c-16-20-90-106-205-121-114-14-213 94-235 121 24 25 129 127 239 115 111-13 185-94 201-115z m-221 98c-55 0-100-45-100-100 0-55 45-100 100-100 55 0 100 45 100 100 0 55-45 100-100 100z m82-102c0-45-37-82-82-82-45 0-82 37-82 82 0 45 37 82 82 82 45 0 82-37 82-82z m-35 0c0-26-21-47-47-47-26 0-47 21-47 47 0 26 21 47 47 47 26 0 47-21 47-47z"/>
<glyph glyph-name="payments" unicode="&#113;" d="M492 317c0 7-5 11-11 11l-450 0c-6 0-11-4-11-11l0-225c0-6 5-10 11-10l450 0c6 0 11 4 11 10z m-21-215l-430 0 0 205 430 0z m-211 33c41 0 74 33 74 74 0 41-33 74-74 74-41 0-74-33-74-74 0-41 33-74 74-74z m0 127c29 0 53-24 53-53 0-29-24-53-53-53-29 0-53 24-53 53 0 29 24 53 53 53z m-149-55c0 12-10 22-23 22-12 0-22-10-22-22 0-13 10-23 22-23 13 0 23 10 23 23z m327 0c0 12-10 22-22 22-13 0-23-10-23-22 0-13 10-23 23-23 12 0 22 10 22 23z m-395 155l426 0c6 0 10 5 10 11 0 6-4 10-10 10l-426 0c-6 0-10-4-10-10 0-6 4-11 10-11z m20 48l388 0c6 0 10 4 10 10 0 6-6 10-12 10l-386 0c-6 0-10-4-10-10 0-6 4-10 10-10z"/>
<glyph glyph-name="spend-analysis" unicode="&#114;" d="M238 281c-37 0-68-29-68-66 0-37 31-65 68-65 36 0 67 28 67 65 0 37-31 66-67 66z m0-113c-27 0-50 20-50 47 0 27 23 47 50 47 26 0 49-20 49-47 0-27-23-47-49-47z m-136 45c0 11-9 20-20 20-11 0-21-9-21-20 0-11 10-20 21-20 11 0 20 9 20 20z m297 0c0 11-9 20-20 20-11 0-21-9-21-20 0-11 10-20 21-20 11 0 20 9 20 20z m-358 156l387 0c6 0 10 4 10 10 0 6-6 10-12 10l-385 0c-6 0-10-4-10-10 0-6 4-10 10-10z m399-281l19-22c2-3 4-3 6-3 2 0 4 3 6 3 4 4 4 10 0 14l-20 24c8 11 14 23 14 35 0 17-8 37-16 41l0 144c2 6-7 4-11 4l-407 0c-6 0-11 2-11-4l0-211c0-4 5-11 11-11l327 0c48-41 82-14 82-14z m-399 35l0 184 389 0 0-114c-4 2-14 4-20 4-31 0-58-29-58-60 0-4 0-14 0-14z m367-21c-21 0-37 17-37 37 0 21 16 37 37 37 20 0 36-16 36-37 0-20-16-37-36-37z"/>
<glyph glyph-name="term-deposits" unicode="&#115;" d="M295 393c22 17 39 41 39 43 2 4 2 8-2 10-4 3-8 3-10-2 0 0-19-28-39-41l0 13c0 2 2 2 2 4 0 10 12 31 18 43 2 4 2 8-2 10-27 21-59 6-72 0-30 21-61 8-73-2-2-2-4-6-2-10 8-12 18-45 20-45 0-2 2-2 2-4l0-9c-20 15-37 39-37 39-2 4-6 7-10 4-4-2-4-6-2-10 0-2 16-26 39-43l-2 0c0 0 0 0-2 0-60-10-107-61-107-119l0-176c0-35 43-78 80-78l252 0c4 0 8 5 8 9l0 239c0 64-43 115-100 125z m-125 70c8 6 29 14 53-4 2-2 6-2 8 0 0 0 29 18 54 6-6-8-15-25-17-37l-82 0c-4 6-10 23-16 35z m96-51l0-15-76 0 0 15z m113-377l-244 0c-26 0-63 35-63 63l0 176c0 56 47 97 94 105l121 0c53-6 94-53 94-111l0-233z m-154 291c-61 0-110-50-110-111 0-61 49-111 110-111 62 0 111 50 111 111 0 59-49 111-111 111z m0-207c-53 0-96 43-96 96 0 53 43 94 96 94 54 0 97-43 97-96 0-53-43-94-97-94z m33 88c-2 2-4 6-8 8-4 2-8 4-14 6-3 0-3 0-5 0-2 0-2 0-2 0l0 25c0 0 7-2 9-4 2-2 2-2 4-11l18 0c0 9-2 11-2 13-2 4-4 6-6 8-2 2-6 4-8 6-4 2-11 2-11 2l0 8-8 0 0-8c-8 0-8 0-10-2-4-2-6-2-10-6-2-2-4-4-6-8-2-4-2-8-2-13 0-4 0-8 2-10 2-2 4-6 6-8 2-2 6-4 8-4 2-2 6-2 10-2 0 0 2 0 2 0 0 0 2 0 2 0l0-27c-8 0-8 0-10 4-2 2-4 11-4 11l-23 0c0-9 5-17 11-21 6-6 14-6 22-6l0-10 8 0 0 10c9 0 13 2 17 4 4 2 8 4 10 8 2 2 4 6 4 8 0 2 2 7 2 7 0 2 0 4 0 8-4 0-6 2-6 4z m-37 18c-8 0-6 2-8 4-2 2-2 4-2 7 0 2 0 4 0 4 0 2 2 2 2 4 0 2 2 2 4 2 2 0 4 0 4 0z m21-37c0-2-2-2-4-4-2-2-2-2-5-2-2 0-4 0-4-2l0 25c9-2 9-2 11-4 2-2 4-4 4-8-2-3-2-5-2-5z"/>
<glyph glyph-name="working-window" unicode="&#117;" d="M494 215c-25 33-60 14-76 4l-82-51-2 0c-43 4-117 12-129 25-2 2-2 4-2 6 0 0 0 2 0 4 0 0 4 2 4 2 0 0 2 0 4 0 29 2 84 2 90 2 33-2 47 33 51 53 0 2 0 6-2 8-2 2-4 4-8 4l-182 0c-2 0-2-2-4-2l-66-41-2 7c0 2-2 4-4 6-2 2-4 2-8 0l-56-19c-6-2-8-8-6-12 2-6 9-8 15-6l45 14 49-151-53-19c-7-2-9-8-7-12 3-4 7-6 11-6 2 0 2 0 4 0l63 20c6 2 9 6 6 10l-4 13 217 0c2 0 5 4 7 6l131 119c0 4 0 8-4 16z m-142-123l-219 0-35 115 66 49 164 0-4-10c-5-13-13-25-23-23l-4 0c-18 0-64 2-88 0-8 0-19-4-23-12-4-8-4-18 2-29 7-10 33-26 152-35 2 0 4 0 6 3l86 53c0 0 0 0 2 0 2 2 17 12 33 10l10-6z m-26 195c53 0 96 43 96 96 0 53-43 96-96 96-54 0-97-43-97-96 0-53 43-96 97-96z m0 174c43 0 75-35 75-78 0-43-34-76-75-76-41 0-76 35-76 78 0 43 33 76 76 76z m2-94c-2 0-2 0-4 0-9 0-15 6-15 14 0 4 2 10 6 12l0 47c0 0 0 6 7 6 6 0 6-8 6-8l0-47c4-2 8-8 8-12 0-2 0-4 0-4l20-21c0 0 4-6 0-10-4-4-10 0-10 0z"/>
<glyph glyph-name="budget" unicode="&#118;" d="M471 377l-119 115c-2 2-8 4-10 2-2 0-2-2-4-5l-244-2c-6 0-12-4-12-10l0-442c0-6 6-15 12-15l361 0c6 0 10 7 10 13l4 327c2 0 2 2 4 5 2 4 0 10-2 12z m-41 12l-74 0-2 76z m-328-348l0 426 232 2 2-94c0-6 4-6 10-6l103 0-5-328z m297 205l-245 0c-7 0-11-4-11-10 0-7 4-11 11-11l245 0c7 0 11 4 11 11 0 6-4 10-11 10z m0-62l-245 0c-7 0-11-4-11-10 0-6 4-10 11-10l245 0c7 0 11 4 11 10 0 6-4 10-11 10z m0-61l-245 0c-7 0-11-4-11-10 0-7 4-11 11-11l245 0c7 0 11 4 11 11 0 6-4 10-11 10z m-129 190c27 0 49 23 49 49-2 27-22 48-49 48-26 0-49-23-49-50 0-24 23-47 49-47z m0 76c15 0 29-12 29-29 0-16-12-28-29-28-16 0-28 12-28 28 0 17 12 29 28 29z"/>
<glyph glyph-name="wallets" unicode="&#119;" d="M461 319l-41 0 20 23c2 2 4 6 4 10 0 4-2 6-4 8l-114 115c-4 4-13 4-17 0l-16-16-62 35c-2 2-6 2-8 2 0 0-4 0-6-9l-98-168-62 0c-8 0-14-2-14-6l0-286c0 0 0-7 8-9l414 0c2 0 2 7 2 21l0 272c2 8-6 8-6 8z m-144 132l99-101-29-31-199 0z m-98 38z m10-22l47-29-118-119-13 0z m123-346l99 0 0-86-390 0 0 266 390 0 0-61-99 0c0 0-53 2-51-64 2 0-4-49 51-55z m99 20l-95 0c-18 0-32 21-32 39 0 19 14 39 32 39l95 0z"/>
<glyph glyph-name="transaction-blackout" unicode="&#106;" d="M242 319c-37 0-66-28-66-65 0-37 31-66 66-66 37 0 65 29 65 66 2 37-28 65-65 65z m0-112c-27 0-47 20-47 47 0 27 20 47 47 47 26 0 47-20 47-47 2-25-21-47-47-47z m-133 47c0 11-10 20-21 20-11 0-20-9-20-20 0-11 9-21 20-21 11 0 21 10 21 21z m292 0c0 11-9 20-20 20-11 0-21-9-21-20 0-11 10-21 21-21 11 0 20 10 20 21z m-354 156l383 0c4 0 8 6 8 10 2 4-2 10-8 10l-383 0c-6 0-10-6-10-10 0-4 4-10 10-10z m406-211l0 153c0 4-9 17-13 17l-403 0c-6 0-14-13-14-17l0-202c0-5 8-7 12-7l260 0c-2 0-2-12-2-18 0-53 43-98 96-98 53 0 98 43 98 96 2 31-14 57-34 76z m-410-35l0 184 389 0 0-137c-18 8-26 10-41 10-49 0-78-28-90-55l-258 0z m348-121c-45 0-80 35-80 80 0 45 35 80 80 80 43 0 80-35 80-80 0-45-35-80-80-80z m2 66c-2 0-2 0-4 0-8 0-14 6-14 14 0 4 2 10 6 12l0 49c0 0 0 6 6 6 6 0 6-8 6-8l0-47c4-2 8-8 8-12 0-2 0-4 0-4l21-21c0 0 4-6 0-10-4-4-10 0-10 0z"/>
<glyph glyph-name="file-uploads" unicode="&#116;" d="M471 156c0 43-31 80-74 86l0 170c0 0 0 0 0 2 0 2-2 2-2 4l-73 74c0 0-3 2-3 2 0 0-2 0-2 0l-268 0c-4-2-8-7-8-11l0-454c0-4 4-9 8-9l342 0c4 0 8 5 8 9l0 41c0 0 0 0 0 2 41 6 72 41 72 84z m-145 307l45-45-45 0z m57-426l-326 0 0 438 252 0 0-65c0-4 4-9 8-9l66 0 0-157c-47 0-86-39-86-88 0-47 39-86 86-88z m0 49c-39 0-72 33-72 72 0 39 33 71 72 71 39 0 72-32 72-71 0-39-31-72-72-72z m6 119c-2 4-8 4-12 0l-29-29c-4-4-2-8 0-12 4-4 8-2 12 0l13 12 0-59c0-4 4-8 8-8 4 0 8 4 8 8l0 61 17-16c2-2 4-2 6-2 2 0 4 0 6 2 4 4 4 8 0 12z m-274 149l186 0c4 0 8 4 8 8 0 5-4 9-8 9l-186 0c-4 0-9-4-9-9 0-4 3-8 9-8z m0-65l186 0c4 0 8 4 8 8 0 4-4 8-8 8l-186 0c-4 0-9-4-9-8 0-4 3-8 9-8z m194-58c0 5-4 9-8 9l-186 0c-4 0-9-4-9-9 0-4 5-8 9-8l186 0c4 0 8 4 8 8z"/>
<glyph glyph-name="account-nickname" unicode="&#120;" d="M297 195c0-7 4-11 10-11l123 0c6 0 10 4 10 11 0 6-4 10-10 10l-123 0c-6 0-10-4-10-10z m133-52l-123 0c-6 0-10-4-10-10 0-6 4-10 10-10l123 0c6 0 10 4 10 10 0 6-4 10-10 10z m51 246l-106 0c-4 21-25 45-53 49-11 23-33 37-58 37-24 0-47-12-57-35-31-2-53-30-57-51l-121 0c-6 0-9-6-9-12l0-326c0-6 3-10 9-10l454 0c6 0 11 4 11 10l0 326c-2 6-7 12-13 12z m-311 0c4 21 20 31 41 31 4 0 8 2 10 6 6 16 23 29 41 29 19 0 35-13 41-29 2-4 4-6 10-6 21 0 35-10 41-31l0-20c-4-21-20-41-41-41l-98 0c-20 0-37 20-41 41-4 0-6 12-4 20z m-100-328l12 50 45 14 41-23c2-2 6-2 8 0l41 21 45-14 14-48z m401 0l-184 0c0 5 0 9 0 9l0 4-15 49c0 2-2 4-4 6l-53 14c-2 0-4 0-6 0l-39-20-39 20c-2 0-6 0-8 0l-51-16c-2 0-6-2-6-6l-15-53c0 0 0-5 0-9l-10 0 0 310 109 0c4-41 30-62 63-62l98 0c33 0 58 21 64 62l96 0z m-301 218c-31 0-57-33-57-72 0-39 24-72 57-72 33 0 57 33 57 72 0 39-24 72-57 72z m0-19c10 0 20-6 29-16-15 0-25 2-25 4-2 4-6 6-10 4-4-2-6-6-6-10l0-4c0-9 0-11-6-15-5-2-9-2-15 0 0 0-2 0-2 0 4 23 21 37 35 37z m39-53c0-29-16-53-39-53-20 0-37 22-39 51 12-4 25 2 29 2 6 4 12 10 14 18 8-4 21-2 31 0 4-6 4-12 4-18z"/>
<glyph glyph-name="loans" unicode="&#110;" d="M494 215c-25 33-60 14-76 4l-82-51-2 0c-43 4-117 12-129 25-2 2-2 4-2 6 0 0 0 2 0 4 0 0 4 2 4 2 0 0 2 0 4 0 29 2 84 2 90 2 33-2 47 33 51 53 0 2 0 6-2 8-2 2-4 4-8 4l-182 0c-2 0-2-2-4-2l-66-41-2 7c0 2-2 4-4 6-2 2-4 2-8 0l-56-19c-6-2-8-8-6-12 2-6 9-8 15-6l45 14 49-151-53-19c-7-2-9-8-7-12 3-4 7-6 11-6 2 0 2 0 4 0l63 20c6 2 9 6 6 10l-4 13 217 0c2 0 5 4 7 6l131 119c0 4 0 8-4 16z m-142-123l-219 0-35 115 66 49 164 0-4-10c-5-13-13-25-23-23l-4 0c-18 0-64 2-88 0-8 0-19-4-23-12-4-8-4-18 2-29 7-10 33-26 152-35 2 0 4 0 6 3l86 53c0 0 0 0 2 0 2 2 17 12 33 10l10-6z m-26 195c53 0 96 43 96 96 0 53-43 96-96 96-54 0-97-43-97-96 0-53 43-96 97-96z m0 174c43 0 75-35 75-78 0-43-34-76-75-76-41 0-76 35-76 78 0 43 33 76 76 76z m-17-92c0 0 2-9 4-11 2-2 2-4 11-4l0 25c0 0-2 0-2 0 0 0-3 0-3 0-2 0-6 2-8 2-2 2-6 2-8 4-2 2-4 4-6 6-2 2-2 6-2 10 0 5 0 9 2 11 2 4 4 6 6 8 2 2 6 4 10 4 2 4 2 6 11 6l0 4 8 0 0-4c0 0 6-2 8-2 4-2 4-2 8-4 2-2 4-6 6-8 2-2 2-4 2-13l-16 0c0 9 0 7-2 9-2 2-6 4-6 4l0-21c0 0 0 0 2 0 0 0 2 0 2 0 6-4 10-6 12-8 4-2 6-4 6-8 2-2 2-4 2-8 0-2 0-4 0-6 0-3 0-5-2-7 0-2-2-6-4-8 0-2-2-4-6-6-4-2-12-4-12-4l0-12-8 0 0 12c-9 0-17 2-23 8-4 4-8 12-10 21z m15 47c0 0-5 0-5 0-2 0-2 0-4-2-2 0-2-2-2-4 0-2-2-2-2-4 0-3 2-5 4-7 2-2 2-2 9-4z m8-62c0 0 2 0 2 0 2 0 2 2 4 2 2 0 2 2 2 4 0 2 0 2 0 5 0 4 0 6-2 6-2 2-8 2-8 4l0-21z"/>
<glyph glyph-name="trade-finance" unicode="&#121;" d="M317 348c7-2 13-2 17 2l137 107c4 2 6 6 6 10 0 4 0 8-4 12-4 4-6 6-10 6-4 0-8 0-12-4l-129-100-119 63c-4 2-6 2-8 2-5 0-9-2-13-6l-147-166c-2-4-4-6-4-10 0-4 2-8 6-10 6-6 16-4 22 2l140 156z m-256-164l41 0 0-143-41 0z m123 123l41 0 0-266-41 0z m123-41l41 0 0-225-41 0z m123 82l41 0 0-307-41 0z"/>
</font>
</defs>
</svg>
